<svg xmlns="http://www.w3.org/2000/svg" xmlns:xlink="http://www.w3.org/1999/xlink" width="1000" height="1000" viewBox="0 0 1000 1000" xml:space="preserve"><desc>Created with Fabric.js 3.5.0</desc><defs/><rect x="0" y="0" width="100%" height="100%" fill="rgba(255,255,255,0)"/><g transform="matrix(2.3706 0 0 2.3706 500.0021 500.0029)" id="539529"><path style="stroke: none; stroke-width: 1; stroke-dasharray: none; stroke-linecap: butt; stroke-dashoffset: 0; stroke-linejoin: miter; stroke-miterlimit: 4; is-custom-font: none; font-file-url: none; fill: rgb(0,0,0); fill-rule: nonzero; opacity: 1;" transform=" translate(-115.7091, -164.5825)" d="M 125.47 328.69 C 86.48 328.69 56.46 320.29 30.36 299.93 C 16.03 288.75 5.70001 274.8 2.29001 256.56 C 0.22001 245.49 0.0700107 234.35 4.15001 223.67 C 5.67001 219.68 8.22001 215.95 10.89 212.57 C 14.24 208.33 19.06 206.19 24.49 206.8 C 30.13 207.44 35.79 208.42 41.26 209.94 C 44.05 210.72 45.63 212.96 44.6 216.7 C 32.23 261.84 58.94 292.59 89.37 304.33 C 108.09 311.55 127.77 313.94 147.02 307.21 C 192.29 291.37 202.34 243.9 183.51 212.49 C 176.28 200.42 165.78 191.69 152.89 186.41 C 133.84 178.61 114.4 171.75 95.28 164.11 C 83.82 159.53 72.29 154.92 61.42 149.13 C 39.1 137.24 26.39 118.38 24.06 93.0301 C 21.82 68.6201 27.09 46.4901 45.24 28.8101 C 58.39 16.0001 74.32 8.12009 92.14 4.34009 C 120.19 -1.60991 148.11 -1.23991 175.17 9.05009 C 194.41 16.3601 210.17 28.4301 219.54 47.3001 C 225.39 59.0801 225.14 71.5301 220.92 83.7901 C 217.38 94.0901 209.54 99.2501 198.72 98.2701 C 193.74 97.8201 188.74 96.3501 184.04 94.5801 C 181.09 93.4701 180.41 91.0601 181.69 87.3001 C 186.86 72.0901 186.51 48.9201 168.46 35.2101 C 145.03 17.4101 118.78 13.4901 91.19 23.0801 C 69.44 30.6401 58.16 50.6201 60.3 74.4601 C 62.37 97.5701 74.78 113.68 95.28 123.06 C 110.45 130 126.4 135.26 142.11 140.98 C 158.42 146.93 174.8 152.59 189.98 161.27 C 212.51 174.15 225.28 193.53 229.1 218.93 C 231.94 237.78 230.91 256.37 223.3 274.13 C 214.09 295.64 196.98 308.85 176.22 317.97 C 158.06 325.94 138.88 328.76 125.46 328.71 L 125.47 328.69 Z" stroke-linecap="round"/></g></svg>